<svg version="1.1" xmlns="http://www.w3.org/2000/svg" viewBox="0 0 628.4512042573308 386.26738971614304"
    width="1256.9024085146616" height="772.5347794322861">
    <!-- svg-source:excalidraw -->

    <defs>
        <style class="style-fonts">
            @font-face {
                font-family: "Virgil";
                src: url("https://excalidraw.com/Virgil.woff2");
            }

            @font-face {
                font-family: "Cascadia";
                src: url("https://excalidraw.com/Cascadia.woff2");
            }

            @font-face {
                font-family: "Assistant";
                src: url("https://excalidraw.com/Assistant-Regular.woff2");
            }
        </style>

    </defs>
    <rect x="0" y="0" width="628.4512042573308" height="386.26738971614304" fill="#ffffff"></rect>
    <g stroke-linecap="round"
        transform="translate(197.26962466986663 44.45884997533358) rotate(0 60.74776785714289 56.32533482142867)">
        <path
            d="M67.75 -0.55 C76.77 -0.42, 86.72 5.62, 94.35 10.52 C101.99 15.43, 108.89 21.41, 113.56 28.87 C118.23 36.33, 122.32 46.53, 122.36 55.3 C122.41 64.06, 118.32 73.45, 113.84 81.46 C109.35 89.47, 103 98.12, 95.46 103.35 C87.93 108.58, 77.95 111.92, 68.62 112.82 C59.29 113.71, 48.33 111.93, 39.46 108.73 C30.58 105.54, 21.72 100.15, 15.37 93.66 C9.01 87.16, 3.47 78.01, 1.32 69.78 C-0.82 61.55, 0.15 52.55, 2.51 44.29 C4.86 36.03, 9.55 27.07, 15.46 20.22 C21.36 13.36, 27.71 6.23, 37.91 3.16 C48.1 0.09, 68.83 1.44, 76.62 1.79 C84.41 2.14, 85.02 4.26, 84.65 5.28 M54.86 1.33 C63.84 -0.2, 74.35 1.59, 83.1 4.6 C91.85 7.62, 101.22 13.14, 107.39 19.41 C113.55 25.68, 118.07 33.93, 120.11 42.22 C122.15 50.51, 122.13 60.52, 119.63 69.16 C117.13 77.81, 111.26 87.32, 105.12 94.09 C98.99 100.86, 91.43 106.79, 82.81 109.78 C74.19 112.77, 62.87 113.12, 53.4 112.03 C43.94 110.95, 33.61 108.02, 26.04 103.26 C18.46 98.5, 12.24 91.42, 7.94 83.47 C3.63 75.53, 0.53 64.47, 0.21 55.58 C-0.12 46.69, 1.47 37.93, 5.97 30.13 C10.47 22.33, 19.32 13.69, 27.22 8.78 C35.13 3.88, 48.8 1.98, 53.4 0.7 C58.01 -0.58, 54.59 0.12, 54.86 1.1"
            stroke="none" stroke-width="0" fill="#a5d8ff"></path>
        <path
            d="M81.23 2.48 C89.77 4.4, 99.1 11.37, 105.46 17.96 C111.82 24.56, 116.85 33.53, 119.37 42.06 C121.89 50.58, 122.53 60.71, 120.57 69.11 C118.6 77.51, 113.72 85.99, 107.57 92.48 C101.43 98.96, 92.59 104.85, 83.7 108.04 C74.81 111.23, 63.67 112.31, 54.24 111.62 C44.8 110.93, 34.94 108.71, 27.1 103.9 C19.26 99.09, 11.56 90.59, 7.17 82.75 C2.79 74.91, 0.89 65.51, 0.77 56.85 C0.65 48.2, 2.49 38.65, 6.46 30.83 C10.42 23.01, 16.74 14.93, 24.56 9.93 C32.38 4.94, 42.49 1.51, 53.38 0.85 C64.27 0.19, 82.78 4.08, 89.9 5.96 C97.02 7.85, 96.67 11.14, 96.11 12.15 M84.67 5.23 C93.28 7.69, 101.82 12.82, 107.93 19.46 C114.05 26.1, 119.38 36.48, 121.36 45.06 C123.34 53.65, 122.7 62.34, 119.83 70.98 C116.96 79.63, 111.09 90.33, 104.15 96.95 C97.21 103.57, 87 108.02, 78.18 110.69 C69.37 113.36, 60.11 114.72, 51.26 112.97 C42.41 111.21, 32.89 105.79, 25.07 100.14 C17.25 94.5, 8.74 86.71, 4.33 79.09 C-0.09 71.47, -2.27 63.07, -1.43 54.45 C-0.58 45.82, 4.6 34.95, 9.38 27.33 C14.16 19.72, 19.44 13.3, 27.26 8.76 C35.07 4.22, 46.6 0.92, 56.27 0.11 C65.95 -0.7, 80.67 3.1, 85.3 3.9 C89.92 4.7, 84.59 3.71, 84.02 4.9"
            stroke="#1e1e1e" stroke-width="2" fill="none"></path>
    </g>
    <g transform="translate(244.9762353981214 78.4561585919273) rotate(0 13.08599853515625 22.5)"><text
            x="13.08599853515625" y="0" font-family="Virgil, Segoe UI Emoji" font-size="36px" fill="#1e1e1e"
            text-anchor="middle" style="white-space: pre;" direction="ltr" dominant-baseline="text-before-edge">B</text>
    </g>
    <g stroke-linecap="round">
        <g
            transform="translate(323.30348088086794 264.31356185913) rotate(54.381532015719955 19.966910856685843 -18.348747803299148)">
            <path
                d="M0.43 -0.29 C2.19 -6.6, 4.94 -36.55, 11.44 -36.91 C17.95 -37.26, 34.7 -8.31, 39.45 -2.41 M-0.81 -1.49 C1.24 -7.7, 7.05 -35.53, 13.59 -35.48 C20.13 -35.43, 33.99 -6.49, 38.42 -1.18"
                stroke="#e03131" stroke-width="2" fill="none"></path>
        </g>
        <g
            transform="translate(323.30348088086794 264.31356185913) rotate(54.381532015719955 19.966910856685843 -18.348747803299148)">
            <path
                d="M-2.41 -19.47 C-1.68 -14.14, -0.5 -6.09, 0.43 -0.29 M-2.41 -19.47 C-1.51 -13.26, -1.36 -7.97, 0.43 -0.29"
                stroke="#e03131" stroke-width="2" fill="none"></path>
        </g>
        <g
            transform="translate(323.30348088086794 264.31356185913) rotate(54.381532015719955 19.966910856685843 -18.348747803299148)">
            <path
                d="M10.58 -16.81 C6.49 -12.41, 2.87 -5.35, 0.43 -0.29 M10.58 -16.81 C7.78 -11.27, 4.21 -6.74, 0.43 -0.29"
                stroke="#e03131" stroke-width="2" fill="none"></path>
        </g>
        <g
            transform="translate(323.30348088086794 264.31356185913) rotate(54.381532015719955 19.966910856685843 -18.348747803299148)">
            <path
                d="M21.08 -14.74 C27.11 -11.59, 33.66 -5.59, 38.42 -1.18 M21.08 -14.74 C26.12 -10.2, 30.39 -6.52, 38.42 -1.18"
                stroke="#e03131" stroke-width="2" fill="none"></path>
        </g>
        <g
            transform="translate(323.30348088086794 264.31356185913) rotate(54.381532015719955 19.966910856685843 -18.348747803299148)">
            <path
                d="M33.85 -22.72 C35.23 -16.58, 37.06 -7.63, 38.42 -1.18 M33.85 -22.72 C35.25 -15.82, 35.87 -9.86, 38.42 -1.18"
                stroke="#e03131" stroke-width="2" fill="none"></path>
        </g>
    </g>
    <mask></mask>
    <g stroke-linecap="round"
        transform="translate(216.04235037408557 223.17128990742822) rotate(0 60.74776785714289 56.32533482142867)">
        <path
            d="M87.23 4.79 C95.67 7.57, 102.53 14.42, 108.05 21.6 C113.57 28.77, 118.61 39.05, 120.34 47.85 C122.08 56.65, 121.38 66.34, 118.46 74.39 C115.55 82.45, 109.63 90.28, 102.85 96.19 C96.07 102.1, 86.85 107.39, 77.79 109.86 C68.72 112.34, 57.5 112.49, 48.47 111.03 C39.43 109.57, 30.72 106.36, 23.58 101.13 C16.44 95.89, 9.65 87.89, 5.63 79.62 C1.6 71.36, -1.15 60.4, -0.57 51.53 C0.01 42.66, 4.06 33.81, 9.09 26.41 C14.11 19.01, 21.58 11.42, 29.58 7.11 C37.59 2.8, 47.26 0.73, 57.12 0.55 C66.98 0.36, 83.19 4.51, 88.74 6.01 C94.29 7.5, 90.76 8.55, 90.43 9.52 M78.21 1.43 C86.86 2.78, 96.41 8.74, 102.97 14.99 C109.52 21.24, 114.44 30.39, 117.52 38.94 C120.6 47.49, 122.78 57.75, 121.43 66.29 C120.07 74.83, 115.2 83.21, 109.39 90.17 C103.59 97.12, 94.95 104.09, 86.57 108.03 C78.2 111.96, 68.52 114.37, 59.15 113.78 C49.79 113.19, 38.87 109.04, 30.37 104.48 C21.87 99.92, 13.07 93.91, 8.16 86.43 C3.26 78.95, 1.53 68.26, 0.95 59.58 C0.37 50.9, 0.91 42.26, 4.68 34.36 C8.45 26.45, 16.09 17.59, 23.55 12.15 C31.02 6.71, 40.37 3.26, 49.46 1.71 C58.55 0.16, 73.66 2.78, 78.1 2.84 C82.53 2.91, 76.31 1.39, 76.06 2.12"
            stroke="none" stroke-width="0" fill="#a5d8ff"></path>
        <path
            d="M49.13 1.25 C57.86 -1.33, 69.29 -0.68, 78.33 1.61 C87.36 3.9, 96.69 8.97, 103.35 14.98 C110 20.99, 115.36 29.18, 118.28 37.69 C121.2 46.2, 122.38 57.38, 120.86 66.03 C119.35 74.68, 114.72 82.8, 109.18 89.61 C103.64 96.42, 96.13 103.06, 87.65 106.89 C79.17 110.71, 68 112.94, 58.31 112.57 C48.62 112.19, 37.51 108.94, 29.5 104.65 C21.5 100.37, 15.07 94.24, 10.28 86.85 C5.49 79.46, 1.66 68.99, 0.79 60.3 C-0.09 51.61, 1.45 42.57, 5.04 34.72 C8.63 26.86, 14.38 18.92, 22.33 13.18 C30.27 7.45, 47.32 2.32, 52.72 0.32 C58.13 -1.68, 54.67 0.24, 54.74 1.2 M32.58 5.51 C39.81 1.1, 50.69 1.14, 59.71 1.38 C68.74 1.61, 78.21 3.02, 86.73 6.92 C95.26 10.81, 104.96 17.97, 110.84 24.77 C116.73 31.57, 121.1 39.44, 122.03 47.72 C122.97 56, 120.1 65.96, 116.46 74.45 C112.82 82.94, 106.73 92.69, 100.19 98.66 C93.64 104.63, 86.27 108.14, 77.2 110.27 C68.12 112.39, 55.07 113.3, 45.74 111.42 C36.41 109.53, 28.03 104.82, 21.19 98.97 C14.34 93.12, 8.22 84.55, 4.68 76.31 C1.14 68.08, -0.87 57.92, -0.03 49.57 C0.8 41.22, 4.29 33.23, 9.69 26.23 C15.1 19.22, 28.57 10.77, 32.4 7.55 C36.22 4.33, 32.12 6.13, 32.66 6.91"
            stroke="#1e1e1e" stroke-width="2" fill="none"></path>
    </g>
    <g transform="translate(265.24296439823877 257.16859852402195) rotate(0 11.591995239257812 22.5)"><text
            x="11.591995239257812" y="0" font-family="Virgil, Segoe UI Emoji" font-size="36px" fill="#1e1e1e"
            text-anchor="middle" style="white-space: pre;" direction="ltr" dominant-baseline="text-before-edge">C</text>
    </g>
    <g stroke-linecap="round"
        transform="translate(49.33489529087785 142.38952746242876) rotate(0 60.74776785714289 56.32533482142867)">
        <path
            d="M44.37 2.72 C52.73 -0.55, 64.01 -0.85, 73.16 0.8 C82.32 2.45, 92.13 7.04, 99.31 12.61 C106.5 18.17, 112.47 25.9, 116.27 34.19 C120.08 42.47, 122.79 53.38, 122.13 62.3 C121.48 71.22, 117.73 80.65, 112.35 87.71 C106.97 94.77, 98.18 100.56, 89.87 104.68 C81.57 108.8, 71.88 112.17, 62.53 112.44 C53.19 112.72, 42.35 110.03, 33.79 106.32 C25.22 102.61, 16.68 97.19, 11.12 90.2 C5.57 83.21, 1.84 72.95, 0.46 64.37 C-0.92 55.8, -0.37 46.87, 2.84 38.76 C6.05 30.64, 12.45 21.77, 19.73 15.71 C27 9.64, 41.79 4.54, 46.48 2.37 C51.16 0.2, 47.78 1.89, 47.84 2.69 M44.12 3.06 C52.62 -0.18, 63.52 -0.81, 72.63 0.87 C81.74 2.54, 91.29 7.43, 98.78 13.11 C106.26 18.8, 113.74 27.2, 117.53 35 C121.33 42.79, 122.59 51.34, 121.54 59.88 C120.5 68.41, 116.12 78.9, 111.25 86.22 C106.39 93.54, 100.31 99.37, 92.34 103.81 C84.37 108.26, 72.78 112.37, 63.43 112.9 C54.07 113.44, 44.59 110.64, 36.2 107.01 C27.82 103.39, 18.97 97.93, 13.12 91.16 C7.26 84.39, 3.02 75.3, 1.08 66.38 C-0.85 57.47, -1.46 46.16, 1.49 37.69 C4.43 29.22, 11.89 21.45, 18.74 15.55 C25.6 9.66, 38.32 4.54, 42.61 2.32 C46.9 0.1, 44.13 1.46, 44.47 2.22"
            stroke="none" stroke-width="0" fill="#a5d8ff"></path>
        <path
            d="M43.07 1.71 C51.29 -1.25, 63.08 0.09, 72.3 1.77 C81.52 3.45, 90.92 6.53, 98.39 11.79 C105.86 17.05, 113.29 25.27, 117.1 33.33 C120.91 41.38, 122.18 51.45, 121.25 60.12 C120.32 68.79, 116.3 77.84, 111.52 85.34 C106.75 92.83, 100.42 100.66, 92.59 105.09 C84.75 109.52, 74.02 111.45, 64.52 111.92 C55.02 112.38, 44.24 111.35, 35.6 107.89 C26.97 104.42, 18.36 98.16, 12.72 91.14 C7.07 84.12, 3.48 74.45, 1.73 65.76 C-0.03 57.08, -0.62 47.28, 2.18 39.01 C4.98 30.73, 10.29 22.43, 18.52 16.13 C26.76 9.82, 44.34 3.6, 51.59 1.19 C58.83 -1.21, 61.85 0.9, 62 1.7 M88.17 6.89 C97.01 9.49, 105.7 15.43, 110.92 22.12 C116.13 28.8, 118.51 38.07, 119.45 46.99 C120.4 55.91, 119.3 67.31, 116.6 75.64 C113.9 83.96, 110.12 91.08, 103.27 96.95 C96.42 102.82, 84.74 108.47, 75.5 110.86 C66.26 113.25, 56.72 113.32, 47.82 111.3 C38.91 109.27, 29.36 104.44, 22.08 98.7 C14.8 92.97, 7.88 84.64, 4.15 76.89 C0.42 69.15, -1.36 60.66, -0.3 52.22 C0.76 43.79, 5.23 33.93, 10.52 26.27 C15.81 18.6, 23.19 10.54, 31.46 6.24 C39.73 1.93, 51.01 0.62, 60.13 0.45 C69.26 0.27, 81.52 4.29, 86.22 5.18 C90.92 6.07, 88.76 4.6, 88.34 5.76"
            stroke="#1e1e1e" stroke-width="2" fill="none"></path>
    </g>
    <g transform="translate(98.3195058970623 176.3868360790225) rotate(0 11.807998657226562 22.5)"><text
            x="11.807998657226562" y="0" font-family="Virgil, Segoe UI Emoji" font-size="36px" fill="#1e1e1e"
            text-anchor="middle" style="white-space: pre;" direction="ltr" dominant-baseline="text-before-edge">A</text>
    </g>
    <g stroke-linecap="round" transform="translate(10 10) rotate(0 215.3612449446166 183.13369485807152)">
        <path
            d="M140.46 10.9 C156.62 2.54, 179.36 1.58, 198.68 0.32 C218 -0.94, 237.65 0.22, 256.38 3.33 C275.1 6.43, 293.56 11.51, 311.02 18.97 C328.49 26.42, 346.57 36.98, 361.15 48.04 C375.73 59.1, 388.33 71.36, 398.5 85.33 C408.68 99.3, 416.82 115.87, 422.2 131.85 C427.58 147.83, 430.44 164.86, 430.78 181.22 C431.13 197.58, 429.4 214.18, 424.28 230 C419.16 245.82, 409.99 261.92, 400.07 276.13 C390.15 290.35, 378.78 303.77, 364.75 315.3 C350.72 326.84, 333.07 337.46, 315.88 345.33 C298.7 353.19, 280.55 359.08, 261.66 362.5 C242.77 365.92, 221.68 367.04, 202.53 365.88 C183.38 364.71, 164.85 360.72, 146.76 355.48 C128.67 350.25, 109.98 343.53, 93.98 334.49 C77.99 325.45, 63.41 314.11, 50.79 301.24 C38.17 288.38, 26.45 272.62, 18.27 257.31 C10.08 242, 4.36 225.41, 1.67 209.4 C-1.02 193.38, -0.33 177.55, 2.13 161.23 C4.58 144.91, 8.95 126.75, 16.38 111.45 C23.81 96.15, 34.64 82.15, 46.72 69.43 C58.81 56.72, 71.98 45.28, 88.89 35.16 C105.81 25.05, 136.78 12.93, 148.22 8.74 C159.66 4.55, 156.2 7.01, 157.53 10.03"
            stroke="#1e1e1e" stroke-width="2.5" fill="none" stroke-dasharray="8 10"></path>
    </g>
    <g stroke-linecap="round">
        <g transform="translate(466.08756669282866 101.7765634736761) rotate(0 -73.6954377587873 0)">
            <path
                d="M-0.85 0.16 C-25.13 0.14, -121.95 -0.36, -146.47 -0.23 M0.9 -0.8 C-23.39 -0.63, -121.95 1.2, -146.94 1.18"
                stroke="#1971c2" stroke-width="1" fill="none"></path>
        </g>
    </g>
    <mask></mask>
    <g transform="translate(485.3672503999089 72.50999743655757) rotate(0 66.54197692871094 35)"><text x="0" y="0"
            font-family="Virgil, Segoe UI Emoji" font-size="28px" fill="#1971c2" text-anchor="start"
            style="white-space: pre;" direction="ltr" dominant-baseline="text-before-edge">Isolated </text><text x="0"
            y="35" font-family="Virgil, Segoe UI Emoji" font-size="28px" fill="#1971c2" text-anchor="start"
            style="white-space: pre;" direction="ltr" dominant-baseline="text-before-edge">Node</text></g>
    <g stroke-linecap="round">
        <g transform="translate(357.15197119258494 230.89852635456236) rotate(0 56.43394942475226 0)">
            <path
                d="M-0.05 -1.16 C18.72 -0.97, 93.38 0.67, 112.27 0.98 M-1.54 0.85 C17.66 0.73, 95.62 -0.27, 114.66 -0.62"
                stroke="#e03131" stroke-width="1" fill="none"></path>
        </g>
    </g>
    <mask></mask>
    <g transform="translate(483.7761211178631 211.32708042487275) rotate(0 30.79998016357422 17.5)"><text
            x="30.79998016357422" y="0" font-family="Virgil, Segoe UI Emoji" font-size="28px" fill="#e03131"
            text-anchor="middle" style="white-space: pre;" direction="ltr"
            dominant-baseline="text-before-edge">Loop</text></g>
    <g stroke-linecap="round">
        <g transform="translate(163.209357356125 225.7418688103503) rotate(0 28.876699646606312 17.879140741021047)">
            <path
                d="M-1.12 -0.89 C3.79 2.3, 19.11 13.85, 28.76 20.15 C38.4 26.46, 52.05 34.39, 56.75 36.95 M0.49 1.25 C5.28 4.01, 17.92 12.69, 27.69 18.36 C37.46 24.02, 54.26 32.22, 59.12 35.23"
                stroke="#e03131" stroke-width="2" fill="none"></path>
        </g>
        <g transform="translate(163.209357356125 225.7418688103503) rotate(0 28.876699646606312 17.879140741021047)">
            <path d="M15.72 3.77 C10.29 2.15, 8.41 -0.11, -1.12 -0.89 M15.72 3.77 C8.63 2.3, 2.14 -0.64, -1.12 -0.89"
                stroke="#e03131" stroke-width="2" fill="none"></path>
        </g>
        <g transform="translate(163.209357356125 225.7418688103503) rotate(0 28.876699646606312 17.879140741021047)">
            <path d="M8.79 13.51 C4.96 9.59, 4.76 4.96, -1.12 -0.89 M8.79 13.51 C4.53 8.16, 0.8 1.33, -1.12 -0.89"
                stroke="#e03131" stroke-width="2" fill="none"></path>
        </g>
        <g transform="translate(163.209357356125 225.7418688103503) rotate(0 28.876699646606312 17.879140741021047)">
            <path
                d="M42.8 32.69 C45.56 33.15, 51.6 32.7, 59.12 35.23 M42.8 32.69 C48.93 34.15, 55.65 34.14, 59.12 35.23"
                stroke="#e03131" stroke-width="2" fill="none"></path>
        </g>
        <g transform="translate(163.209357356125 225.7418688103503) rotate(0 28.876699646606312 17.879140741021047)">
            <path
                d="M48.25 22.8 C49.77 25.61, 54.49 27.56, 59.12 35.23 M48.25 22.8 C52.14 28.19, 56.69 32.13, 59.12 35.23"
                stroke="#e03131" stroke-width="2" fill="none"></path>
        </g>
    </g>
    <mask></mask>
</svg>