<svg version="1.1" xmlns="http://www.w3.org/2000/svg" viewBox="0 0 450.7224898892332 386.26738971614304"
    width="901.4449797784664" height="772.5347794322861">
    <!-- svg-source:excalidraw -->

    <defs>
        <style class="style-fonts">
            @font-face {
                font-family: "Virgil";
                src: url("https://excalidraw.com/Virgil.woff2");
            }

            @font-face {
                font-family: "Cascadia";
                src: url("https://excalidraw.com/Cascadia.woff2");
            }

            @font-face {
                font-family: "Assistant";
                src: url("https://excalidraw.com/Assistant-Regular.woff2");
            }
        </style>

    </defs>
    <rect x="0" y="0" width="450.7224898892332" height="386.26738971614304" fill="#ffffff"></rect>
    <g stroke-linecap="round"
        transform="translate(197.26962466986652 44.45884997533358) rotate(0 60.74776785714289 56.32533482142867)">
        <path
            d="M35.2 4.7 C43.15 0.78, 55.56 0.39, 64.95 0.88 C74.34 1.37, 83.72 3.32, 91.55 7.66 C99.39 12, 106.96 19.4, 111.98 26.92 C117.01 34.44, 121.1 44.15, 121.7 52.78 C122.29 61.41, 119.48 70.66, 115.57 78.7 C111.66 86.73, 105.55 95.38, 98.23 100.96 C90.92 106.55, 81.02 110.6, 71.66 112.23 C62.31 113.85, 50.96 113.26, 42.1 110.7 C33.25 108.15, 25.05 103.07, 18.55 96.89 C12.05 90.71, 5.94 82.2, 3.1 73.62 C0.27 65.03, -0.01 54.1, 1.54 45.39 C3.09 36.68, 5.73 28.55, 12.41 21.35 C19.08 14.15, 35.94 5.33, 41.59 2.19 C47.24 -0.95, 45.99 1.36, 46.3 2.51 M63.97 -1.18 C73.18 -1.34, 85.22 4.21, 93.24 9.1 C101.25 13.99, 107.44 20.85, 112.06 28.14 C116.67 35.43, 120.37 44.29, 120.94 52.84 C121.5 61.4, 119.13 71.32, 115.44 79.49 C111.75 87.67, 106.41 96.38, 98.81 101.88 C91.21 107.39, 79.12 111.24, 69.85 112.53 C60.58 113.82, 51.83 112.65, 43.19 109.6 C34.55 106.56, 24.58 100.3, 18.01 94.27 C11.45 88.24, 6.6 81.34, 3.78 73.42 C0.97 65.51, -0.45 55.61, 1.1 46.76 C2.66 37.91, 7.2 27.29, 13.14 20.32 C19.08 13.36, 27.88 8.38, 36.73 4.96 C45.58 1.55, 61.66 0.31, 66.24 -0.18 C70.82 -0.66, 64.36 1.1, 64.2 2.06"
            stroke="none" stroke-width="0" fill="#a5d8ff"></path>
        <path
            d="M78.71 3.55 C87.51 5.35, 97.2 11.44, 104.03 17.42 C110.86 23.41, 116.87 31.29, 119.69 39.48 C122.51 47.66, 122.99 57.98, 120.96 66.54 C118.93 75.1, 113.44 84.01, 107.49 90.84 C101.54 97.66, 93.87 103.97, 85.25 107.5 C76.63 111.04, 65.18 112.41, 55.77 112.03 C46.36 111.64, 36.65 109.62, 28.81 105.21 C20.97 100.79, 13.39 93.26, 8.74 85.55 C4.09 77.83, 1.63 67.56, 0.94 58.93 C0.25 50.3, 0.73 41.64, 4.62 33.77 C8.5 25.9, 16.73 17.27, 24.25 11.72 C31.77 6.18, 39.87 1.75, 49.73 0.49 C59.58 -0.76, 77.13 3.29, 83.38 4.2 C89.63 5.11, 87.49 5.07, 87.22 5.94 M34.21 4.11 C42.03 0.03, 54.52 0.26, 63.8 0.8 C73.08 1.34, 82 3, 89.87 7.37 C97.74 11.74, 105.66 19.42, 111 27.02 C116.34 34.62, 120.79 44.43, 121.91 52.97 C123.04 61.52, 121.27 70.45, 117.74 78.28 C114.21 86.11, 108 94.47, 100.74 99.96 C93.49 105.45, 83.55 109.32, 74.23 111.22 C64.92 113.12, 54.16 113.69, 44.85 111.37 C35.55 109.06, 25.13 103.34, 18.4 97.32 C11.68 91.3, 7.49 83.5, 4.49 75.25 C1.49 67, -0.77 56.74, 0.39 47.82 C1.55 38.89, 5.99 28.65, 11.42 21.68 C16.85 14.72, 28.99 8.71, 32.99 6 C37 3.28, 34.9 4.66, 35.46 5.4"
            stroke="#1e1e1e" stroke-width="2" fill="none"></path>
    </g>
    <g transform="translate(244.97623539812116 78.4561585919273) rotate(0 13.08599853515625 22.5)"><text
            x="13.08599853515625" y="0" font-family="Virgil, Segoe UI Emoji" font-size="36px" fill="#1e1e1e"
            text-anchor="middle" style="white-space: pre;" direction="ltr" dominant-baseline="text-before-edge">B</text>
    </g>
    <g stroke-linecap="round">
        <g
            transform="translate(323.30348088086794 264.31356185913046) rotate(54.381532015719955 19.9669108566859 -18.348747803299148)">
            <path
                d="M0.25 -0.63 C2.39 -6.72, 6.84 -36.56, 13.58 -36.67 C20.32 -36.77, 36.41 -7.1, 40.71 -1.25 M-1.07 1.66 C0.94 -4.22, 6.28 -34.32, 13.19 -35.11 C20.09 -35.9, 35.99 -8.3, 40.35 -3.08"
                stroke="#e03131" stroke-width="2" fill="none"></path>
        </g>
        <g
            transform="translate(323.30348088086794 264.31356185913046) rotate(54.381532015719955 19.9669108566859 -18.348747803299148)">
            <path
                d="M-1.43 -19.94 C-1.85 -11.25, -0.17 -4.71, 0.25 -0.63 M-1.43 -19.94 C-1.19 -13.36, -0.76 -5.24, 0.25 -0.63"
                stroke="#e03131" stroke-width="2" fill="none"></path>
        </g>
        <g
            transform="translate(323.30348088086794 264.31356185913046) rotate(54.381532015719955 19.9669108566859 -18.348747803299148)">
            <path d="M11.38 -16.5 C6.33 -9.03, 3.37 -3.74, 0.25 -0.63 M11.38 -16.5 C6.74 -11.17, 2.29 -4.36, 0.25 -0.63"
                stroke="#e03131" stroke-width="2" fill="none"></path>
        </g>
        <g
            transform="translate(323.30348088086794 264.31356185913046) rotate(54.381532015719955 19.9669108566859 -18.348747803299148)">
            <path
                d="M22.38 -15.81 C27.83 -9.48, 35.43 -5.34, 40.35 -3.08 M22.38 -15.81 C28.86 -11.86, 35.5 -6.22, 40.35 -3.08"
                stroke="#e03131" stroke-width="2" fill="none"></path>
        </g>
        <g
            transform="translate(323.30348088086794 264.31356185913046) rotate(54.381532015719955 19.9669108566859 -18.348747803299148)">
            <path
                d="M34.77 -24.38 C35.73 -14.92, 38.85 -7.68, 40.35 -3.08 M34.77 -24.38 C36.47 -17.09, 38.39 -8.18, 40.35 -3.08"
                stroke="#e03131" stroke-width="2" fill="none"></path>
        </g>
    </g>
    <mask></mask>
    <g stroke-linecap="round"
        transform="translate(216.0423503740858 223.17128990742822) rotate(0 60.74776785714289 56.32533482142867)">
        <path
            d="M82.41 3.54 C91.24 5.88, 101.05 12.79, 107.23 19.34 C113.41 25.89, 117.44 34.25, 119.52 42.85 C121.6 51.45, 122 62.26, 119.7 70.93 C117.4 79.6, 112.18 88.37, 105.72 94.88 C99.27 101.4, 89.69 106.99, 80.96 110.02 C72.22 113.04, 62.49 114.22, 53.29 113.03 C44.1 111.84, 33.5 108.2, 25.78 102.88 C18.06 97.55, 11.37 89, 6.96 81.07 C2.55 73.14, -0.89 64.06, -0.68 55.27 C-0.47 46.49, 3.54 36.04, 8.22 28.35 C12.89 20.65, 19.55 13.64, 27.37 9.08 C35.19 4.53, 44.8 1.52, 55.14 0.99 C65.48 0.47, 82.89 4.46, 89.43 5.93 C95.98 7.41, 95.05 8.87, 94.4 9.85 M71.88 0.2 C80.95 0.81, 90.76 6.01, 98.39 11.74 C106.02 17.46, 114.02 26.32, 117.67 34.54 C121.33 42.75, 120.98 52.5, 120.31 61.03 C119.64 69.56, 118.33 78.66, 113.68 85.74 C109.02 92.82, 100.5 98.86, 92.39 103.51 C84.27 108.17, 74.55 112.78, 65.01 113.66 C55.47 114.53, 43.95 112.72, 35.15 108.76 C26.35 104.8, 17.89 96.99, 12.21 89.89 C6.52 82.8, 2.41 74.71, 1.04 66.16 C-0.34 57.62, 1.24 46.85, 3.96 38.63 C6.67 30.41, 10.68 22.91, 17.33 16.83 C23.98 10.76, 34.65 4.73, 43.85 2.19 C53.05 -0.35, 67.91 1.74, 72.54 1.59 C77.17 1.44, 71.71 0.62, 71.64 1.29"
            stroke="none" stroke-width="0" fill="#a5d8ff"></path>
        <path
            d="M80.57 2.59 C89.06 4.42, 97.37 10.51, 103.78 16.81 C110.2 23.1, 116.47 31.97, 119.07 40.36 C121.67 48.75, 121.28 58.39, 119.37 67.15 C117.47 75.9, 113.4 85.97, 107.63 92.87 C101.85 99.78, 93.2 105.39, 84.71 108.58 C76.21 111.78, 66.22 112.69, 56.66 112.07 C47.09 111.44, 35.31 109.43, 27.32 104.82 C19.34 100.22, 13.37 92.2, 8.74 84.42 C4.11 76.65, 0.04 66.88, -0.45 58.18 C-0.93 49.49, 1.67 40.22, 5.83 32.26 C9.99 24.3, 16.89 15.67, 24.53 10.43 C32.17 5.19, 41.33 1.6, 51.66 0.81 C61.99 0.03, 79.6 4.16, 86.52 5.72 C93.43 7.28, 93.59 9.24, 93.14 10.19 M75.16 2.87 C84.3 4.4, 95 10.42, 102.28 16.14 C109.55 21.87, 115.48 29.22, 118.81 37.21 C122.15 45.19, 123.53 55.47, 122.28 64.06 C121.03 72.64, 116.85 81.48, 111.3 88.7 C105.75 95.93, 97.6 103.39, 88.96 107.41 C80.32 111.43, 68.76 112.94, 59.45 112.81 C50.13 112.69, 41.31 110.81, 33.06 106.66 C24.81 102.51, 15.5 95.49, 9.95 87.94 C4.4 80.38, 0.97 69.97, -0.22 61.33 C-1.41 52.69, -0.82 44.22, 2.81 36.08 C6.45 27.94, 14.34 18.29, 21.59 12.49 C28.84 6.69, 37.09 3.15, 46.29 1.29 C55.5 -0.58, 72.13 1.21, 76.83 1.32 C81.53 1.44, 75.01 1.2, 74.51 1.97"
            stroke="#1e1e1e" stroke-width="2" fill="none"></path>
    </g>
    <g transform="translate(265.2429643982389 257.16859852402195) rotate(0 11.591995239257812 22.5)"><text
            x="11.591995239257812" y="0" font-family="Virgil, Segoe UI Emoji" font-size="36px" fill="#1e1e1e"
            text-anchor="middle" style="white-space: pre;" direction="ltr" dominant-baseline="text-before-edge">C</text>
    </g>
    <g stroke-linecap="round"
        transform="translate(49.33489529087774 142.3895274624292) rotate(0 60.74776785714289 56.32533482142867)">
        <path
            d="M45.71 0.67 C54.17 -2.04, 66.23 -0.55, 75.49 1.77 C84.74 4.1, 94.28 8.73, 101.24 14.6 C108.2 20.47, 113.76 28.76, 117.22 37 C120.69 45.23, 123.01 55.32, 122.01 64 C121 72.68, 116.61 82.13, 111.2 89.07 C105.78 96.01, 98.02 101.73, 89.51 105.65 C80.99 109.58, 69.46 112.67, 60.09 112.61 C50.72 112.55, 41.47 109.4, 33.29 105.3 C25.11 101.2, 16.37 94.94, 11 88.03 C5.63 81.12, 2.23 72.56, 1.08 63.84 C-0.07 55.12, 0.83 44.13, 4.08 35.71 C7.34 27.3, 13.44 19.05, 20.6 13.34 C27.75 7.64, 42.09 3.51, 47.04 1.51 C51.99 -0.5, 49.91 0.49, 50.31 1.31 M45.12 2.97 C53.35 0.09, 62.66 0.23, 71.89 1.81 C81.12 3.39, 92.89 7.26, 100.48 12.44 C108.08 17.63, 113.76 24.67, 117.44 32.93 C121.12 41.18, 123.47 52.81, 122.57 61.95 C121.67 71.1, 117.33 80.7, 112.03 87.78 C106.74 94.87, 98.92 100.26, 90.8 104.45 C82.68 108.64, 72.52 112.51, 63.33 112.92 C54.15 113.32, 44.37 110.54, 35.69 106.87 C27 103.21, 16.95 97.88, 11.22 90.93 C5.49 83.98, 2.62 73.82, 1.31 65.16 C-0.01 56.51, 0.49 47.41, 3.3 39.02 C6.12 30.63, 11.27 21.13, 18.19 14.83 C25.11 8.53, 40.64 3.38, 44.83 1.22 C49.02 -0.94, 43.39 0.77, 43.3 1.86"
            stroke="none" stroke-width="0" fill="#a5d8ff"></path>
        <path
            d="M50.84 0.4 C59.5 -1.76, 70.06 -0.59, 78.98 2.36 C87.89 5.32, 97.61 11.67, 104.33 18.11 C111.04 24.54, 116.46 32.8, 119.26 40.96 C122.06 49.12, 123.19 58.44, 121.14 67.08 C119.1 75.71, 112.95 85.94, 106.97 92.78 C101 99.61, 93.89 104.85, 85.31 108.08 C76.73 111.3, 64.99 112.78, 55.49 112.12 C46 111.46, 36.18 108.85, 28.33 104.12 C20.49 99.39, 13.05 91.31, 8.43 83.75 C3.82 76.2, 1.24 67.38, 0.66 58.8 C0.07 50.22, 1.09 40.22, 4.91 32.29 C8.74 24.36, 15.03 16.49, 23.63 11.22 C32.23 5.96, 49.69 2.47, 56.51 0.69 C63.34 -1.08, 64.36 -0.17, 64.57 0.56 M82.47 3.53 C91.3 5.37, 100.63 12.19, 106.98 18.58 C113.32 24.96, 118.27 33.29, 120.54 41.84 C122.82 50.39, 123.01 61.33, 120.63 69.9 C118.26 78.47, 112.34 86.64, 106.29 93.25 C100.24 99.85, 93.08 106.3, 84.35 109.52 C75.62 112.74, 63.59 113.8, 53.93 112.57 C44.27 111.33, 34.37 106.91, 26.37 102.09 C18.37 97.27, 10.24 91.33, 5.93 83.64 C1.62 75.94, 0.53 64.77, 0.52 55.94 C0.51 47.11, 1.56 38.35, 5.86 30.68 C10.15 23.01, 18.72 15.11, 26.29 9.93 C33.87 4.74, 42.24 0.88, 51.32 -0.43 C60.4 -1.73, 75.85 1.21, 80.77 2.09 C85.69 2.96, 80.88 3.95, 80.84 4.84"
            stroke="#1e1e1e" stroke-width="2" fill="none"></path>
    </g>
    <g transform="translate(98.31950589706207 176.38683607902294) rotate(0 11.807998657226562 22.5)"><text
            x="11.807998657226562" y="0" font-family="Virgil, Segoe UI Emoji" font-size="36px" fill="#1e1e1e"
            text-anchor="middle" style="white-space: pre;" direction="ltr" dominant-baseline="text-before-edge">A</text>
    </g>
    <g stroke-linecap="round" transform="translate(10 10) rotate(0 215.3612449446166 183.13369485807152)">
        <path
            d="M178.15 3.62 C195.86 -1.82, 217.66 -0.09, 237.1 1.34 C256.54 2.77, 276.92 6.13, 294.77 12.22 C312.62 18.31, 328.77 27.9, 344.19 37.88 C359.62 47.87, 375.49 59.24, 387.3 72.13 C399.11 85.02, 408 99.87, 415.04 115.21 C422.07 130.54, 427.34 147.82, 429.49 164.12 C431.63 180.42, 431.04 196.77, 427.9 213.01 C424.77 229.24, 419.12 246.47, 410.66 261.5 C402.19 276.53, 389.99 290.78, 377.1 303.18 C364.22 315.58, 349.54 326.73, 333.36 335.9 C317.18 345.06, 298.28 353.24, 280 358.17 C261.73 363.11, 242.91 365.1, 223.71 365.49 C204.51 365.89, 183.62 364.23, 164.82 360.55 C146.03 356.86, 127.67 351.22, 110.93 343.39 C94.19 335.56, 78.23 325.12, 64.4 313.58 C50.58 302.03, 37.65 288.47, 27.98 274.14 C18.3 259.8, 11.04 243.64, 6.37 227.58 C1.7 211.51, -0.74 194.39, -0.05 177.76 C0.64 161.13, 4.66 143.45, 10.52 127.8 C16.38 112.15, 24.55 97.66, 35.13 83.88 C45.71 70.1, 59.43 56.2, 74 45.14 C88.58 34.09, 103.82 24.97, 122.59 17.55 C141.36 10.12, 174.21 2.75, 186.63 0.61 C199.04 -1.53, 196.62 1.6, 197.07 4.7"
            stroke="#1e1e1e" stroke-width="2.5" fill="none" stroke-dasharray="8 10"></path>
    </g>
    <g stroke-linecap="round">
        <g transform="translate(163.2093573561251 225.74186881035075) rotate(0 28.876699646606312 17.879140741021047)">
            <path
                d="M-0.48 -1.09 C4.45 2.12, 20.39 14.25, 30.09 20.29 C39.79 26.33, 53.19 32.6, 57.73 35.17 M1.47 0.95 C6.3 4.34, 20.47 12.7, 29.72 18.57 C38.96 24.44, 52.35 33.14, 56.95 36.17"
                stroke="#e03131" stroke-width="2" fill="none"></path>
        </g>
        <g transform="translate(163.2093573561251 225.74186881035075) rotate(0 28.876699646606312 17.879140741021047)">
            <path d="M16.36 3.58 C8.97 3.52, 5.9 0.28, -0.48 -1.09 M16.36 3.58 C12.27 2.6, 7.2 1.75, -0.48 -1.09"
                stroke="#e03131" stroke-width="2" fill="none"></path>
        </g>
        <g transform="translate(163.2093573561251 225.74186881035075) rotate(0 28.876699646606312 17.879140741021047)">
            <path d="M9.42 13.31 C4.32 9.95, 3.63 3.38, -0.48 -1.09 M9.42 13.31 C7.1 9.9, 3.78 6.61, -0.48 -1.09"
                stroke="#e03131" stroke-width="2" fill="none"></path>
        </g>
        <g transform="translate(163.2093573561251 225.74186881035075) rotate(0 28.876699646606312 17.879140741021047)">
            <path
                d="M40.87 32.41 C44.9 35.28, 52.95 35.02, 56.95 36.17 M40.87 32.41 C44.99 33.55, 48.23 34.8, 56.95 36.17"
                stroke="#e03131" stroke-width="2" fill="none"></path>
        </g>
        <g transform="translate(163.2093573561251 225.74186881035075) rotate(0 28.876699646606312 17.879140741021047)">
            <path
                d="M47.05 22.95 C49.05 29.03, 54.98 32.01, 56.95 36.17 M47.05 22.95 C49.59 26.46, 51.28 30.09, 56.95 36.17"
                stroke="#e03131" stroke-width="2" fill="none"></path>
        </g>
    </g>
    <mask></mask>
</svg>