<svg version="1.1" xmlns="http://www.w3.org/2000/svg" viewBox="0 0 741.1622238159181 450.1806640625"
    width="1482.3244476318362" height="900.361328125">
    <!-- svg-source:excalidraw -->

    <defs>
        <style class="style-fonts">
            @font-face {
                font-family: "Virgil";
                src: url("https://excalidraw.com/Virgil.woff2");
            }

            @font-face {
                font-family: "Cascadia";
                src: url("https://excalidraw.com/Cascadia.woff2");
            }

            @font-face {
                font-family: "Assistant";
                src: url("https://excalidraw.com/Assistant-Regular.woff2");
            }
        </style>

    </defs>
    <rect x="0" y="0" width="741.1622238159181" height="450.1806640625" fill="#ffffff"></rect>
    <g stroke-linecap="round"
        transform="translate(162.0751953125001 64.29827008928532) rotate(0 60.74776785714289 56.32533482142867)">
        <path
            d="M57.69 0.33 C66.74 -0.72, 78.1 1.79, 86.73 5.38 C95.36 8.96, 103.67 14.88, 109.47 21.84 C115.27 28.8, 120.04 38.28, 121.54 47.13 C123.03 55.97, 121.64 66.71, 118.45 74.91 C115.26 83.11, 109.11 90.27, 102.39 96.33 C95.68 102.39, 87.14 108.76, 78.17 111.27 C69.2 113.79, 57.74 113.16, 48.57 111.42 C39.4 109.69, 30.43 106.44, 23.14 100.88 C15.85 95.32, 8.57 86.37, 4.81 78.07 C1.06 69.77, -0.06 59.69, 0.62 51.05 C1.31 42.42, 4.15 33.6, 8.93 26.24 C13.7 18.88, 19.58 11.29, 29.28 6.87 C38.97 2.46, 59.66 0.5, 67.08 -0.25 C74.49 -1, 74.08 1.34, 73.75 2.38 M64.62 1.33 C73.53 0.97, 84.47 2.62, 92.49 6.67 C100.51 10.72, 107.69 18.11, 112.73 25.62 C117.77 33.14, 122.1 42.77, 122.73 51.75 C123.35 60.73, 120.28 71.5, 116.47 79.5 C112.66 87.5, 107.23 94.61, 99.87 99.74 C92.51 104.88, 81.7 108.38, 72.29 110.33 C62.88 112.28, 52.68 113.61, 43.42 111.44 C34.16 109.27, 23.51 103.48, 16.73 97.3 C9.95 91.13, 5.6 82.97, 2.73 74.38 C-0.15 65.8, -2.17 54.47, -0.52 45.79 C1.13 37.11, 6.86 28.91, 12.62 22.28 C18.38 15.66, 25.58 10, 34.04 6.05 C42.5 2.1, 58.53 -0.79, 63.35 -1.41 C68.17 -2.03, 62.68 1.12, 62.95 2.35"
            stroke="none" stroke-width="0" fill="#a5d8ff"></path>
        <path
            d="M51.37 0.39 C60.15 -1.75, 70.61 0.51, 79.56 3.17 C88.51 5.82, 98.52 10.15, 105.09 16.33 C111.67 22.51, 116.61 31.67, 119.02 40.24 C121.42 48.81, 121.55 59.24, 119.54 67.76 C117.52 76.29, 112.57 84.6, 106.93 91.39 C101.29 98.18, 94.17 104.98, 85.69 108.5 C77.21 112.02, 65.53 113.33, 56.06 112.53 C46.6 111.73, 36.86 108.28, 28.91 103.71 C20.95 99.15, 13.09 92.72, 8.33 85.14 C3.57 77.57, 0.75 67.17, 0.37 58.26 C-0.02 49.35, 1.92 39.43, 6.04 31.67 C10.15 23.9, 17 16.9, 25.05 11.66 C33.1 6.42, 48.54 2.07, 54.35 0.22 C60.16 -1.62, 59.63 -0.5, 59.9 0.58 M65.08 -0.65 C74.21 -0.99, 85.2 2.95, 93.45 7.96 C101.71 12.98, 109.97 21.5, 114.63 29.43 C119.28 37.36, 121.16 46.9, 121.39 55.54 C121.61 64.18, 119.82 73.8, 115.96 81.26 C112.1 88.73, 105.69 95.08, 98.23 100.34 C90.78 105.59, 80.95 111.48, 71.25 112.82 C61.56 114.15, 49.26 111.5, 40.09 108.37 C30.91 105.23, 22.26 99.87, 16.22 94 C10.18 88.13, 6.32 81.31, 3.85 73.16 C1.39 65.02, -0.04 53.65, 1.43 45.13 C2.9 36.61, 6.68 28.96, 12.67 22.02 C18.66 15.09, 28.51 7.22, 37.35 3.53 C46.19 -0.17, 60.8 0, 65.73 -0.15 C70.66 -0.31, 66.99 1.65, 66.95 2.59"
            stroke="#1e1e1e" stroke-width="2" fill="none"></path>
    </g>
    <g transform="translate(209.78180604075482 98.29557870587905) rotate(0 13.08599853515625 22.5)"><text
            x="13.08599853515625" y="0" font-family="Virgil, Segoe UI Emoji" font-size="36px" fill="#1e1e1e"
            text-anchor="middle" style="white-space: pre;" direction="ltr" dominant-baseline="text-before-edge">B</text>
    </g>
    <g stroke-linecap="round">
        <g transform="translate(256.93175972880516 165.03037216927623) rotate(0 16.606460608068943 41.06935123306903)">
            <path d="M-0.42 0.38 C5.39 14.05, 28.76 67.61, 34.19 81.31 M1.56 -0.46 C7.36 13.4, 28.26 68.92, 33.75 82.41"
                stroke="#e03131" stroke-width="2" fill="none"></path>
        </g>
        <g transform="translate(256.93175972880516 165.03037216927623) rotate(0 16.606460608068943 41.06935123306903)">
            <path d="M16.73 18.58 C13.32 15.73, 7.15 7.93, -0.42 0.38 M16.73 18.58 C11.74 12.3, 5.97 5.97, -0.42 0.38"
                stroke="#e03131" stroke-width="2" fill="none"></path>
        </g>
        <g transform="translate(256.93175972880516 165.03037216927623) rotate(0 16.606460608068943 41.06935123306903)">
            <path d="M1.02 25.34 C1.46 20.91, -0.91 11.47, -0.42 0.38 M1.02 25.34 C1.37 16.71, 0.89 8.1, -0.42 0.38"
                stroke="#e03131" stroke-width="2" fill="none"></path>
        </g>
        <g transform="translate(256.93175972880516 165.03037216927623) rotate(0 16.606460608068943 41.06935123306903)">
            <path
                d="M17.25 63.63 C21.77 69.85, 23.74 71, 33.75 82.41 M17.25 63.63 C23.34 69.64, 28.91 75.77, 33.75 82.41"
                stroke="#e03131" stroke-width="2" fill="none"></path>
        </g>
        <g transform="translate(256.93175972880516 165.03037216927623) rotate(0 16.606460608068943 41.06935123306903)">
            <path
                d="M33.18 57.42 C33.81 65.09, 31.92 67.74, 33.75 82.41 M33.18 57.42 C33.87 65.6, 34.07 73.82, 33.75 82.41"
                stroke="#e03131" stroke-width="2" fill="none"></path>
        </g>
    </g>
    <mask></mask>
    <g stroke-linecap="round"
        transform="translate(252.57184709821468 242.5955636160702) rotate(0 60.74776785714289 56.32533482142867)">
        <path
            d="M71.01 1.67 C80.05 2.35, 91.45 7.46, 98.88 12.52 C106.31 17.57, 111.75 24.07, 115.58 31.99 C119.42 39.92, 122.32 51.15, 121.91 60.05 C121.49 68.94, 117.91 77.89, 113.1 85.37 C108.29 92.86, 100.95 100.6, 93.04 104.96 C85.13 109.32, 75.2 110.92, 65.65 111.55 C56.1 112.18, 44.45 112.08, 35.73 108.77 C27.01 105.46, 19.26 98.7, 13.34 91.69 C7.41 84.68, 2.03 75.2, 0.2 66.73 C-1.63 58.25, -0.51 49.23, 2.36 40.85 C5.23 32.48, 10.73 22.93, 17.42 16.49 C24.11 10.04, 32.91 4.53, 42.49 2.17 C52.08 -0.2, 68.96 1.9, 74.92 2.28 C80.89 2.67, 78.29 3.56, 78.26 4.48 M54.61 -0.41 C63.44 -1.82, 73.39 1.77, 82.25 4.99 C91.12 8.21, 101.6 12.45, 107.79 18.91 C113.97 25.37, 117.37 35.25, 119.36 43.76 C121.35 52.27, 121.94 61.41, 119.73 69.97 C117.53 78.54, 112.35 88.44, 106.14 95.15 C99.93 101.85, 91.38 107.32, 82.46 110.22 C73.55 113.12, 62.12 113.67, 52.66 112.55 C43.2 111.43, 33.6 108.53, 25.7 103.51 C17.79 98.49, 9.46 90.53, 5.23 82.42 C1.01 74.32, 0.09 63.87, 0.35 54.87 C0.6 45.88, 2.21 36.23, 6.78 28.43 C11.35 20.63, 19.96 12.71, 27.76 8.08 C35.56 3.45, 49.02 1.67, 53.59 0.67 C58.17 -0.34, 54.75 1.38, 55.21 2.05"
            stroke="none" stroke-width="0" fill="#a5d8ff"></path>
        <path
            d="M32.22 7.18 C39.99 2.86, 52.16 0.91, 61.54 0.88 C70.92 0.84, 80.44 3.09, 88.51 6.96 C96.58 10.83, 104.67 16.95, 109.96 24.1 C115.25 31.25, 118.86 41.25, 120.26 49.85 C121.66 58.46, 121.71 67.6, 118.36 75.73 C115.01 83.85, 107.52 92.85, 100.18 98.62 C92.84 104.39, 83.17 108.29, 74.31 110.34 C65.45 112.4, 55.94 113.09, 47.02 110.94 C38.1 108.79, 27.86 103.27, 20.79 97.44 C13.73 91.61, 8 84, 4.64 75.96 C1.28 67.93, -0.41 57.98, 0.66 49.25 C1.72 40.51, 4.92 30.92, 11.02 23.55 C17.11 16.18, 31.69 8.34, 37.22 5.02 C42.75 1.7, 43.56 2.97, 44.21 3.64 M49.18 0.81 C57.61 -1.43, 69.43 -0.45, 78.78 2.37 C88.13 5.19, 98.76 11.51, 105.27 17.73 C111.79 23.96, 115.5 31.38, 117.87 39.72 C120.24 48.05, 120.85 59.22, 119.49 67.77 C118.14 76.33, 115.46 84.41, 109.72 91.04 C103.98 97.66, 93.93 103.82, 85.06 107.53 C76.2 111.24, 66.11 114.05, 56.55 113.29 C46.98 112.54, 35.74 107.71, 27.65 103.02 C19.56 98.33, 12.6 92.27, 8.02 85.14 C3.45 78.01, 0.75 69.13, 0.21 60.24 C-0.34 51.34, 0.96 40.04, 4.75 31.78 C8.54 23.52, 15.19 15.69, 22.95 10.66 C30.71 5.62, 46.66 3.16, 51.32 1.55 C55.99 -0.07, 50.78 -0.02, 50.93 0.99"
            stroke="#1e1e1e" stroke-width="2" fill="none"></path>
    </g>
    <g transform="translate(301.7724611223678 276.5928722326639) rotate(0 11.591995239257812 22.5)"><text
            x="11.591995239257812" y="0" font-family="Virgil, Segoe UI Emoji" font-size="36px" fill="#1e1e1e"
            text-anchor="middle" style="white-space: pre;" direction="ltr" dominant-baseline="text-before-edge">C</text>
    </g>
    <g stroke-linecap="round">
        <g
            transform="translate(166.01360911835314 169.64780567242315) rotate(215.09461890042854 12.197544155834244 38.31245855622865)">
            <path d="M0.06 -0.91 C3.83 11.97, 19.53 64.27, 23.53 77.26 M-1.37 1.22 C2.7 13.76, 21.7 63.2, 25.78 75.48"
                stroke="#e03131" stroke-width="2" fill="none"></path>
        </g>
        <g
            transform="translate(166.01360911835314 169.64780567242315) rotate(215.09461890042854 12.197544155834244 38.31245855622865)">
            <path d="M14.98 19.14 C7.86 10.16, 4.84 3.5, 0.06 -0.91 M14.98 19.14 C9.59 11.65, 6.12 5.05, 0.06 -0.91"
                stroke="#e03131" stroke-width="2" fill="none"></path>
        </g>
        <g
            transform="translate(166.01360911835314 169.64780567242315) rotate(215.09461890042854 12.197544155834244 38.31245855622865)">
            <path d="M-1.4 24.04 C-2.37 13.22, 0.77 4.72, 0.06 -0.91 M-1.4 24.04 C-1.28 14.87, 0.72 6.64, 0.06 -0.91"
                stroke="#e03131" stroke-width="2" fill="none"></path>
        </g>
        <g
            transform="translate(166.01360911835314 169.64780567242315) rotate(215.09461890042854 12.197544155834244 38.31245855622865)">
            <path
                d="M9.76 56.29 C14.25 62.04, 22.86 70.12, 25.78 75.48 M9.76 56.29 C14.33 61.81, 21.19 68.32, 25.78 75.48"
                stroke="#e03131" stroke-width="2" fill="none"></path>
        </g>
        <g
            transform="translate(166.01360911835314 169.64780567242315) rotate(215.09461890042854 12.197544155834244 38.31245855622865)">
            <path
                d="M25.84 50.48 C24.28 58.42, 26.85 68.69, 25.78 75.48 M25.84 50.48 C24.99 57.98, 26.48 66.43, 25.78 75.48"
                stroke="#e03131" stroke-width="2" fill="none"></path>
        </g>
    </g>
    <mask></mask>
    <g stroke-linecap="round"
        transform="translate(100.54617745535711 247.27818080357065) rotate(0 60.74776785714289 56.32533482142867)">
        <path
            d="M54.07 -0.71 C62.97 -2.21, 75.33 1.45, 84.32 4.84 C93.32 8.23, 101.99 13.16, 108.03 19.64 C114.07 26.12, 118.85 34.99, 120.57 43.73 C122.29 52.48, 120.84 63.76, 118.37 72.1 C115.9 80.45, 111.98 87.61, 105.73 93.79 C99.49 99.97, 89.95 106.29, 80.9 109.17 C71.86 112.05, 60.75 112.37, 51.45 111.09 C42.15 109.82, 32.62 106.44, 25.12 101.51 C17.61 96.58, 10.71 89.31, 6.41 81.49 C2.12 73.66, -1 63.22, -0.64 54.55 C-0.28 45.88, 3.95 37.1, 8.59 29.46 C13.23 21.82, 18.76 13.49, 27.19 8.72 C35.62 3.95, 53.03 2.09, 59.15 0.86 C65.26 -0.37, 63.8 0.4, 63.89 1.35 M43.03 3.47 C51.61 0.22, 64.05 -0.5, 73.23 1.18 C82.42 2.85, 91.08 8.14, 98.15 13.54 C105.21 18.94, 111.88 25.94, 115.6 33.55 C119.31 41.17, 121.16 50.5, 120.45 59.21 C119.74 67.91, 116.29 78.24, 111.34 85.8 C106.39 93.35, 98.57 99.98, 90.73 104.52 C82.89 109.05, 73.32 112.51, 64.3 113 C55.28 113.49, 45.24 111.41, 36.59 107.47 C27.95 103.53, 18.33 96.4, 12.44 89.35 C6.54 82.3, 2.7 73.42, 1.21 65.18 C-0.27 56.94, 0.49 48.15, 3.51 39.92 C6.52 31.69, 12.4 21.93, 19.28 15.81 C26.17 9.69, 40.6 5.19, 44.84 3.2 C49.08 1.22, 44.59 2.93, 44.71 3.89"
            stroke="none" stroke-width="0" fill="#a5d8ff"></path>
        <path
            d="M69.37 0.75 C78.22 0.97, 88.02 4.66, 95.49 9.8 C102.96 14.94, 109.97 23.48, 114.19 31.59 C118.41 39.71, 120.9 49.94, 120.81 58.48 C120.72 67.02, 118.04 75.2, 113.65 82.82 C109.27 90.44, 102.39 99.21, 94.48 104.2 C86.57 109.19, 75.62 112.11, 66.2 112.74 C56.78 113.36, 46.69 111.22, 37.97 107.94 C29.25 104.67, 19.95 99.6, 13.88 93.09 C7.82 86.58, 3.7 77.32, 1.58 68.89 C-0.54 60.46, -1.35 50.96, 1.14 42.51 C3.64 34.07, 10.1 24.68, 16.54 18.23 C22.98 11.79, 30.55 6.61, 39.77 3.86 C48.99 1.1, 66.36 2.04, 71.84 1.69 C77.33 1.34, 72.96 0.8, 72.68 1.75 M70.76 -0.72 C79.83 -0.16, 89.75 6.06, 97.31 11.63 C104.88 17.19, 112.25 24.76, 116.14 32.67 C120.03 40.57, 120.85 50.55, 120.64 59.07 C120.43 67.59, 119.53 76.36, 114.86 83.78 C110.19 91.2, 100.62 98.93, 92.64 103.57 C84.67 108.21, 75.96 110.93, 67.01 111.61 C58.07 112.29, 47.83 110.8, 38.95 107.66 C30.08 104.51, 19.86 99.16, 13.76 92.73 C7.67 86.3, 4.35 77.44, 2.38 69.06 C0.41 60.69, -0.32 50.94, 1.94 42.48 C4.2 34.01, 9.25 24.85, 15.95 18.26 C22.65 11.68, 33.12 5.96, 42.13 2.99 C51.13 0.02, 65.35 0.63, 69.97 0.43 C74.58 0.23, 70.14 0.8, 69.8 1.79"
            stroke="#1e1e1e" stroke-width="2" fill="none"></path>
    </g>
    <g transform="translate(149.5307880615415 281.2754894201644) rotate(0 11.807998657226562 22.5)"><text
            x="11.807998657226562" y="0" font-family="Virgil, Segoe UI Emoji" font-size="36px" fill="#1e1e1e"
            text-anchor="middle" style="white-space: pre;" direction="ltr" dominant-baseline="text-before-edge">A</text>
    </g>
    <g stroke-linecap="round" transform="translate(10 10) rotate(0 228.89892578124994 215.09033203125)">
        <path
            d="M146.6 15.31 C162.75 5.69, 184.24 3.66, 203.74 1.55 C223.24 -0.56, 244.03 -0.26, 263.59 2.64 C283.15 5.53, 303.13 11.48, 321.12 18.91 C339.1 26.34, 355.98 35.85, 371.51 47.21 C387.05 58.57, 402.65 72.11, 414.34 87.09 C426.03 102.06, 434.7 119.75, 441.64 137.06 C448.58 154.37, 453.85 172.41, 456.01 190.92 C458.16 209.43, 457.41 229.58, 454.58 248.1 C451.75 266.62, 446.89 285.29, 439.01 302.04 C431.13 318.78, 419.87 334.19, 407.31 348.57 C394.75 362.95, 379.52 377.24, 363.66 388.31 C347.79 399.38, 330.34 408.08, 312.12 414.98 C293.91 421.89, 273.84 427.67, 254.35 429.75 C234.86 431.82, 214.87 430.27, 195.19 427.43 C175.52 424.6, 154.54 420.26, 136.3 412.74 C118.05 405.23, 101.19 393.98, 85.73 382.35 C70.27 370.73, 55.26 357.81, 43.56 342.98 C31.86 328.15, 22.67 310.83, 15.53 293.37 C8.38 275.91, 2.74 256.77, 0.68 238.23 C-1.38 219.69, -0.06 200.26, 3.16 182.11 C6.38 163.96, 12.03 146.38, 19.99 129.32 C27.96 112.26, 38.87 94.17, 50.96 79.74 C63.06 65.31, 75.07 54.08, 92.58 42.73 C110.09 31.38, 143.65 16.77, 156.02 11.63 C168.4 6.48, 165.58 8.41, 166.8 11.84"
            stroke="#1e1e1e" stroke-width="2.5" fill="none" stroke-dasharray="8 10"></path>
    </g>
    <g stroke-linecap="round">
        <g transform="translate(607.4755859374999 87.9541015625) rotate(0 -94.38720703125011 0)">
            <path
                d="M-1.08 0.76 C-32.68 1.01, -158.7 0.54, -189.9 0.51 M0.56 0.11 C-30.67 0.09, -156.22 -1.08, -187.77 -1.34"
                stroke="#1e1e1e" stroke-width="1" fill="none"></path>
        </g>
    </g>
    <mask></mask>
    <g transform="translate(627.7342605590821 65.615234375) rotate(0 51.71398162841797 22.5)"><text
            x="51.71398162841797" y="0" font-family="Virgil, Segoe UI Emoji" font-size="36px" fill="#1e1e1e"
            text-anchor="middle" style="white-space: pre;" direction="ltr"
            dominant-baseline="text-before-edge">Graph</text></g>
    <g stroke-linecap="round">
        <g transform="translate(376.8066406249999 302.4951171875) rotate(0 114.31396484375 0)">
            <path d="M0.69 0.83 C38.8 0.72, 191 0.29, 229.1 0.12 M-0.41 0.23 C37.54 0.25, 190.19 1.59, 228.4 1.72"
                stroke="#1971c2" stroke-width="1" fill="none"></path>
        </g>
    </g>
    <mask></mask>
    <g transform="translate(618.2991867065431 278.6865234375) rotate(0 41.65198516845703 22.5)"><text
            x="41.65198516845703" y="0" font-family="Virgil, Segoe UI Emoji" font-size="36px" fill="#1971c2"
            text-anchor="middle" style="white-space: pre;" direction="ltr"
            dominant-baseline="text-before-edge">Node</text></g>
    <g stroke-linecap="round">
        <g transform="translate(278.671875 205.1220703125) rotate(0 164.70458984374994 0)">
            <path
                d="M0.14 0.64 C54.86 0.61, 274.19 0.69, 328.91 0.53 M-1.25 -0.07 C53.23 -0.51, 272.34 -1.47, 327.71 -1.31"
                stroke="#e03131" stroke-width="1" fill="none"></path>
        </g>
    </g>
    <mask></mask>
    <g transform="translate(624.1135787963866 174.94140625) rotate(0 41.23798370361328 22.5)"><text
            x="41.23798370361328" y="0" font-family="Virgil, Segoe UI Emoji" font-size="36px" fill="#e03131"
            text-anchor="middle" style="white-space: pre;" direction="ltr"
            dominant-baseline="text-before-edge">Edge</text></g>
</svg>