<svg version="1.1" xmlns="http://www.w3.org/2000/svg" viewBox="0 0 434.13772522599845 265.1418658381838"
    width="868.2754504519969" height="530.2837316763676">
    <!-- svg-source:excalidraw -->

    <defs>
        <style class="style-fonts">
            @font-face {
                font-family: "Virgil";
                src: url("https://excalidraw.com/Virgil.woff2");
            }

            @font-face {
                font-family: "Cascadia";
                src: url("https://excalidraw.com/Cascadia.woff2");
            }

            @font-face {
                font-family: "Assistant";
                src: url("https://excalidraw.com/Assistant-Regular.woff2");
            }
        </style>

    </defs>
    <rect x="0" y="0" width="434.13772522599845" height="265.1418658381838" fill="#ffffff"></rect>
    <g stroke-linecap="round" transform="translate(10 10) rotate(0 60.74776785714289 56.32533482142867)">
        <path
            d="M77.43 2.74 C86.41 4.07, 96.14 9.23, 102.89 15.23 C109.65 21.23, 114.97 30.29, 117.96 38.72 C120.96 47.15, 122.32 57.05, 120.86 65.8 C119.4 74.55, 114.97 84.32, 109.2 91.2 C103.43 98.07, 94.71 103.57, 86.24 107.06 C77.78 110.55, 67.74 112.56, 58.41 112.14 C49.07 111.73, 38.47 108.93, 30.23 104.56 C21.99 100.2, 14.12 93.23, 8.96 85.96 C3.8 78.69, 0.05 69.61, -0.74 60.96 C-1.54 52.32, 0.25 42.21, 4.19 34.1 C8.14 25.99, 15.44 17.75, 22.91 12.3 C30.38 6.86, 38.14 2.34, 48.99 1.43 C59.83 0.51, 80.04 5.03, 87.98 6.81 C95.92 8.58, 97 11.5, 96.64 12.06 M68.42 -0.55 C77.79 -0.34, 89.29 4.56, 97.22 9.66 C105.14 14.76, 111.87 21.94, 115.96 30.04 C120.04 38.15, 122.23 49.51, 121.7 58.27 C121.18 67.04, 117.25 74.91, 112.79 82.62 C108.33 90.32, 102.28 99.42, 94.94 104.5 C87.6 109.57, 78.34 112.57, 68.75 113.05 C59.16 113.53, 46.51 110.52, 37.4 107.37 C28.3 104.23, 19.96 100.44, 14.12 94.17 C8.29 87.9, 4.66 78.21, 2.41 69.76 C0.17 61.31, -1.64 52.01, 0.66 43.48 C2.97 34.94, 9.46 25.3, 16.25 18.53 C23.03 11.76, 32.64 5.61, 41.37 2.85 C50.1 0.09, 64.21 2.33, 68.61 1.97 C73.01 1.61, 67.97 -0.03, 67.77 0.68"
            stroke="none" stroke-width="0" fill="#a5d8ff"></path>
        <path
            d="M61.85 -0.27 C70.88 -0.94, 82.3 2.82, 90.48 6.94 C98.65 11.06, 105.67 17.23, 110.91 24.45 C116.14 31.67, 120.92 41.62, 121.89 50.27 C122.86 58.91, 120.39 68.08, 116.71 76.31 C113.03 84.54, 106.8 93.75, 99.8 99.66 C92.8 105.57, 83.79 109.8, 74.7 111.79 C65.61 113.79, 54.3 113.92, 45.24 111.64 C36.18 109.35, 27.45 104.05, 20.35 98.07 C13.24 92.09, 5.82 84.04, 2.61 75.76 C-0.6 67.47, -0.24 57.12, 1.09 48.37 C2.41 39.62, 5.16 30.33, 10.58 23.26 C15.99 16.18, 24.3 9.65, 33.59 5.93 C42.88 2.2, 59.96 1.5, 66.32 0.91 C72.67 0.32, 71.74 1.62, 71.73 2.39 M39.25 5.52 C47.25 1.99, 57.14 0.44, 66.5 1.3 C75.85 2.17, 87.57 6.03, 95.38 10.71 C103.18 15.38, 109.11 21.7, 113.33 29.33 C117.56 36.95, 120.67 47.8, 120.73 56.48 C120.8 65.17, 117.77 73.69, 113.71 81.44 C109.65 89.19, 103.95 97.73, 96.38 102.97 C88.81 108.22, 77.48 111.84, 68.3 112.93 C59.13 114.01, 49.88 112.48, 41.31 109.47 C32.74 106.45, 23.36 101.52, 16.89 94.83 C10.42 88.13, 5.14 77.99, 2.51 69.31 C-0.12 60.63, -0.68 51.23, 1.11 42.73 C2.9 34.23, 7.3 24.85, 13.25 18.33 C19.2 11.8, 32.48 5.81, 36.81 3.56 C41.14 1.3, 38.65 3.95, 39.23 4.8"
            stroke="#1e1e1e" stroke-width="2" fill="none"></path>
    </g>
    <g transform="translate(58.98461060618439 43.99730861659373) rotate(0 11.807998657226562 22.5)"><text
            x="11.807998657226562" y="0" font-family="Virgil, Segoe UI Emoji" font-size="36px" fill="#1e1e1e"
            text-anchor="middle" style="white-space: pre;" direction="ltr" dominant-baseline="text-before-edge">A</text>
    </g>
    <g stroke-linecap="round"
        transform="translate(225.58987515083936 22.11207785012448) rotate(0 60.74776785714289 56.32533482142867)">
        <path
            d="M40.45 3.82 C48.69 0.31, 60.6 -0.21, 70.08 1.15 C79.57 2.5, 89.94 6.68, 97.37 11.96 C104.8 17.23, 110.56 25.2, 114.64 32.79 C118.73 40.38, 122.02 48.92, 121.88 57.49 C121.74 66.05, 118.4 76.34, 113.81 84.19 C109.22 92.04, 102.26 99.76, 94.33 104.58 C86.41 109.41, 75.92 112.56, 66.24 113.13 C56.57 113.69, 45.02 111.61, 36.3 107.97 C27.58 104.33, 19.67 98.13, 13.9 91.28 C8.14 84.43, 3.6 75.2, 1.71 66.87 C-0.18 58.53, 0.02 49.36, 2.54 41.26 C5.07 33.16, 10.02 24.7, 16.85 18.28 C23.68 11.86, 38.63 5.3, 43.52 2.74 C48.41 0.17, 45.7 1.92, 46.2 2.88 M41.12 1.54 C49.48 -2.12, 61.49 -1.24, 70.91 0.34 C80.34 1.91, 90.1 5.61, 97.64 10.99 C105.19 16.37, 112.02 24.61, 116.21 32.6 C120.4 40.58, 123.39 50.06, 122.78 58.88 C122.18 67.7, 117.71 78.22, 112.58 85.51 C107.44 92.81, 99.75 98.32, 91.97 102.64 C84.19 106.96, 75.13 110.66, 65.89 111.46 C56.65 112.25, 45.22 110.51, 36.54 107.41 C27.86 104.3, 19.64 99.42, 13.8 92.82 C7.97 86.23, 3.47 76.35, 1.51 67.86 C-0.44 59.36, -0.28 50.29, 2.06 41.84 C4.41 33.39, 8.8 23.62, 15.58 17.17 C22.37 10.71, 38.39 5.48, 42.8 3.1 C47.2 0.71, 41.9 1.85, 42 2.84"
            stroke="none" stroke-width="0" fill="#a5d8ff"></path>
        <path
            d="M65.34 0.33 C74.22 0.18, 85.4 4.17, 93.39 8.92 C101.39 13.68, 108.65 21.27, 113.31 28.86 C117.97 36.45, 120.94 45.82, 121.35 54.47 C121.77 63.12, 119.78 73.05, 115.8 80.77 C111.83 88.49, 105.19 95.45, 97.49 100.77 C89.79 106.08, 79.04 111.32, 69.61 112.67 C60.18 114.02, 49.78 111.92, 40.9 108.87 C32.03 105.82, 22.87 100.43, 16.34 94.38 C9.82 88.34, 4.37 80.93, 1.76 72.59 C-0.86 64.24, -1.32 52.99, 0.66 44.33 C2.64 35.67, 7.68 27.16, 13.64 20.6 C19.59 14.05, 25.8 8.09, 36.37 4.98 C46.94 1.87, 68.88 1.63, 77.05 1.94 C85.22 2.25, 85.83 5.81, 85.41 6.85 M66.54 0.03 C75.56 -0.26, 87.4 3.54, 95.45 8.52 C103.5 13.51, 110.45 22.31, 114.84 29.95 C119.23 37.59, 121.55 45.74, 121.78 54.36 C122.01 62.98, 120.64 73.7, 116.22 81.65 C111.8 89.61, 103.37 96.89, 95.25 102.1 C87.12 107.31, 76.7 111.52, 67.48 112.94 C58.27 114.36, 48.46 113.69, 39.95 110.62 C31.45 107.55, 22.81 101.29, 16.46 94.51 C10.12 87.73, 4.51 78.26, 1.88 69.95 C-0.74 61.64, -1.66 53.19, 0.71 44.63 C3.09 36.06, 9.96 25.35, 16.16 18.54 C22.35 11.73, 29.49 6.96, 37.9 3.77 C46.31 0.58, 61.85 -0.1, 66.64 -0.6 C71.43 -1.09, 66.77 -0.04, 66.64 0.82"
            stroke="#1e1e1e" stroke-width="2" fill="none"></path>
    </g>
    <g transform="translate(273.29648587909406 56.109386466718206) rotate(0 13.08599853515625 22.5)"><text
            x="13.08599853515625" y="0" font-family="Virgil, Segoe UI Emoji" font-size="36px" fill="#1e1e1e"
            text-anchor="middle" style="white-space: pre;" direction="ltr" dominant-baseline="text-before-edge">B</text>
    </g>
    <g stroke-linecap="round">
        <g
            transform="translate(223.25243812073884 42.974615068263574) rotate(215.09461890042854 -44.61732686052656 26.39193501708337)">
            <path
                d="M-0.41 -0.77 C-15.18 7.99, -74.61 43.6, -89.38 52.71 M1.58 1.43 C-13.3 10.38, -75.2 45.76, -90.41 54.21"
                stroke="#e03131" stroke-width="2" fill="none"></path>
        </g>
    </g>
    <mask></mask>
    <g stroke-linecap="round"
        transform="translate(87.05231436087331 130.37911834520173) rotate(0 60.74776785714289 56.32533482142867)">
        <path
            d="M72.18 1.26 C81.01 1.84, 90.6 6.29, 97.88 11.66 C105.17 17.04, 112.08 25.38, 115.91 33.51 C119.74 41.64, 121.63 51.83, 120.88 60.45 C120.14 69.06, 116.49 77.79, 111.46 85.22 C106.44 92.64, 98.67 100.44, 90.73 104.99 C82.8 109.55, 73.13 112.18, 63.87 112.54 C54.61 112.9, 43.69 110.76, 35.16 107.14 C26.63 103.52, 18.39 97.68, 12.68 90.82 C6.97 83.96, 2.4 74.72, 0.9 65.99 C-0.61 57.26, 0.86 46.78, 3.64 38.42 C6.42 30.07, 11.11 21.85, 17.59 15.84 C24.06 9.84, 32.5 4.61, 42.5 2.38 C52.5 0.15, 71.05 2.11, 77.58 2.47 C84.1 2.82, 82.02 3.64, 81.65 4.52 M49.04 1.13 C57.65 -1.3, 69.49 0.14, 78.19 2.27 C86.9 4.4, 94.84 7.78, 101.28 13.91 C107.72 20.04, 113.74 30.44, 116.84 39.03 C119.94 47.63, 121.27 57.26, 119.89 65.49 C118.5 73.72, 114.02 81.7, 108.52 88.41 C103.03 95.13, 95.25 101.52, 86.93 105.78 C78.6 110.03, 67.91 113.95, 58.58 113.93 C49.24 113.91, 38.9 110.37, 30.9 105.67 C22.91 100.98, 15.92 93.08, 10.6 85.75 C5.28 78.42, -0.19 70.31, -1.02 61.68 C-1.84 53.05, 2.01 42.09, 5.66 33.97 C9.31 25.85, 13.73 18.18, 20.86 12.95 C28 7.72, 43.97 4.26, 48.47 2.59 C52.98 0.93, 47.63 2.51, 47.92 2.97"
            stroke="none" stroke-width="0" fill="#a5d8ff"></path>
        <path
            d="M51.15 1.41 C59.82 -0.52, 71.9 0.9, 80.82 3.58 C89.75 6.26, 98.37 11.14, 104.69 17.47 C111.01 23.8, 116.2 32.94, 118.74 41.56 C121.28 50.18, 121.89 60.51, 119.95 69.16 C118 77.82, 113.26 86.86, 107.09 93.5 C100.92 100.14, 91.5 105.84, 82.93 109 C74.36 112.16, 64.86 113.33, 55.67 112.44 C46.49 111.56, 35.97 108.47, 27.83 103.68 C19.7 98.88, 11.52 91.29, 6.85 83.66 C2.18 76.04, -0.13 66.64, -0.2 57.92 C-0.26 49.2, 2.25 39.2, 6.45 31.32 C10.66 23.44, 16.42 15.77, 25.01 10.64 C33.61 5.5, 51.83 2.17, 58.02 0.51 C64.22 -1.15, 62.32 -0.29, 62.18 0.68 M68.48 -0.29 C77.2 0.23, 88.21 5.5, 95.9 11.01 C103.59 16.53, 110.35 25.11, 114.63 32.81 C118.9 40.5, 121.57 48.44, 121.53 57.17 C121.5 65.89, 118.82 77.29, 114.4 85.17 C109.98 93.05, 103.15 100.02, 95.04 104.47 C86.92 108.92, 75.39 111.19, 65.69 111.85 C56 112.51, 45.54 111.86, 36.84 108.45 C28.15 105.03, 19.22 97.99, 13.53 91.38 C7.84 84.77, 4.49 77.16, 2.69 68.77 C0.89 60.38, 0.24 49.52, 2.73 41.04 C5.23 32.56, 11.13 24.4, 17.66 17.89 C24.2 11.38, 33.22 4.98, 41.96 2.01 C50.7 -0.96, 65.33 0.25, 70.12 0.08 C74.9 -0.08, 71.12 0.13, 70.68 1.02"
            stroke="#1e1e1e" stroke-width="2" fill="none"></path>
    </g>
    <g transform="translate(136.25292838502645 164.37642696179546) rotate(0 11.591995239257812 22.5)"><text
            x="11.591995239257812" y="0" font-family="Virgil, Segoe UI Emoji" font-size="36px" fill="#1e1e1e"
            text-anchor="middle" style="white-space: pre;" direction="ltr" dominant-baseline="text-before-edge">C</text>
    </g>
    <g stroke-linecap="round"
        transform="translate(302.6421895117127 142.4911961953262) rotate(0 60.74776785714289 56.32533482142867)">
        <path
            d="M67.37 0.18 C76.41 0.46, 86.92 5.17, 94.61 10.01 C102.29 14.86, 109.15 21.53, 113.47 29.24 C117.8 36.95, 120.37 47.45, 120.57 56.29 C120.78 65.13, 118.91 74.62, 114.7 82.28 C110.49 89.94, 103.05 97.22, 95.34 102.25 C87.62 107.27, 77.73 111.27, 68.41 112.41 C59.09 113.56, 48.14 112.32, 39.42 109.13 C30.71 105.93, 22.51 99.78, 16.14 93.22 C9.76 86.66, 3.72 78.11, 1.19 69.75 C-1.34 61.39, -1.34 51.45, 0.96 43.05 C3.26 34.65, 8.8 25.98, 14.99 19.36 C21.18 12.73, 28.38 6.28, 38.1 3.29 C47.82 0.3, 66.47 1.2, 73.31 1.42 C80.15 1.64, 79.32 3.56, 79.14 4.62 M56.12 -1.09 C64.54 -2.25, 75.8 2.36, 84.37 6.29 C92.94 10.23, 101.75 16.05, 107.54 22.51 C113.34 28.97, 117.38 36.8, 119.13 45.04 C120.89 53.27, 120.73 63.22, 118.06 71.94 C115.39 80.67, 109.68 91.01, 103.11 97.39 C96.53 103.77, 87.38 108.05, 78.62 110.21 C69.87 112.37, 60.01 111.92, 50.58 110.33 C41.15 108.74, 29.4 105.99, 22.06 100.68 C14.72 95.36, 10.33 86.43, 6.55 78.44 C2.77 70.45, -1.13 61.03, -0.64 52.71 C-0.14 44.39, 4.53 35.87, 9.51 28.54 C14.48 21.2, 21.1 13.7, 29.22 8.72 C37.34 3.74, 53.41 -0.19, 58.22 -1.33 C63.04 -2.48, 58.29 0.92, 58.1 1.86"
            stroke="none" stroke-width="0" fill="#a5d8ff"></path>
        <path
            d="M84.68 4.23 C93.15 6.75, 101.72 14.2, 107.66 21.22 C113.6 28.25, 118.47 37.67, 120.33 46.38 C122.19 55.09, 121.67 65.16, 118.84 73.49 C116.02 81.82, 109.82 90.26, 103.37 96.35 C96.91 102.44, 88.89 107.43, 80.11 110.05 C71.33 112.67, 60.21 113.6, 50.67 112.09 C41.13 110.57, 30.42 106.28, 22.86 100.95 C15.3 95.63, 9.09 88.06, 5.31 80.12 C1.53 72.19, -0.32 62.14, 0.2 53.36 C0.72 44.58, 3.56 34.89, 8.43 27.46 C13.31 20.02, 21.56 13.39, 29.47 8.75 C37.39 4.12, 46.45 0.08, 55.92 -0.36 C65.39 -0.8, 80.9 4.77, 86.29 6.12 C91.67 7.47, 88.63 7.15, 88.23 7.75 M41.94 3.82 C50.33 0.41, 62.22 -1.39, 71.7 0.18 C81.18 1.75, 91.24 7.59, 98.84 13.23 C106.44 18.88, 113.66 26.42, 117.31 34.07 C120.95 41.72, 121.59 50.55, 120.7 59.11 C119.81 67.68, 116.84 78.07, 111.98 85.45 C107.13 92.83, 99.29 98.8, 91.59 103.4 C83.89 108, 74.99 112.37, 65.79 113.04 C56.59 113.72, 45.01 111.08, 36.41 107.43 C27.82 103.79, 19.92 98.19, 14.21 91.19 C8.5 84.19, 4.01 74.11, 2.16 65.42 C0.31 56.74, 0.31 47.35, 3.09 39.08 C5.88 30.82, 12.5 22.04, 18.86 15.82 C25.22 9.61, 37.4 3.71, 41.24 1.79 C45.08 -0.12, 41.26 3.34, 41.89 4.34"
            stroke="#1e1e1e" stroke-width="2" fill="none"></path>
    </g>
    <g transform="translate(349.3948054889908 176.48850481191994) rotate(0 14.039993286132812 22.5)"><text
            x="14.039993286132812" y="0" font-family="Virgil, Segoe UI Emoji" font-size="36px" fill="#1e1e1e"
            text-anchor="middle" style="white-space: pre;" direction="ltr" dominant-baseline="text-before-edge">D</text>
    </g>
    <g stroke-linecap="round">
        <g
            transform="translate(300.3047524816121 163.35373341346485) rotate(215.09461890042854 -44.61732686052656 26.39193501708337)">
            <path
                d="M0.42 -0.74 C-14.73 7.96, -74.97 43.1, -89.92 52 M-0.81 1.48 C-15.66 10.34, -72.69 44.39, -87.57 53.13"
                stroke="#e03131" stroke-width="2" fill="none"></path>
        </g>
        <g
            transform="translate(300.3047524816121 163.35373341346485) rotate(215.09461890042854 -44.61732686052656 26.39193501708337)">
            <path
                d="M-71.73 33.8 C-79.07 40.11, -85.21 48.54, -87.57 53.13 M-71.73 33.8 C-75.44 38.79, -80.35 45.93, -87.57 53.13"
                stroke="#e03131" stroke-width="2" fill="none"></path>
        </g>
        <g
            transform="translate(300.3047524816121 163.35373341346485) rotate(215.09461890042854 -44.61732686052656 26.39193501708337)">
            <path
                d="M-63.01 48.51 C-73.67 49.22, -83.14 52.01, -87.57 53.13 M-63.01 48.51 C-69.34 49.22, -76.78 52.09, -87.57 53.13"
                stroke="#e03131" stroke-width="2" fill="none"></path>
        </g>
    </g>
    <mask></mask>
</svg>